<svg width="500" height="150" viewBox="0 0 500 150" fill="none" xmlns="http://www.w3.org/2000/svg">
<path d="M209.617 113.277C204.319 113.277 199.413 112.296 194.9 110.373C190.387 108.45 186.423 105.742 183.048 102.289C179.673 98.8353 177.043 94.7539 175.16 90.0837C173.276 85.4136 172.334 80.2332 172.334 74.6212C172.334 69.0484 173.237 63.9073 175.081 59.198C176.926 54.4886 179.516 50.4071 182.852 46.9535C186.187 43.5 190.112 40.8313 194.625 38.9083C199.099 36.9853 204.044 36.0435 209.381 36.0435C214.679 36.0435 219.428 36.9461 223.588 38.7514C227.748 40.5566 231.319 42.9113 234.184 45.8547C237.049 48.7588 239.129 51.9376 240.424 55.352L229.867 60.493C228.336 56.4116 225.786 53.115 222.214 50.6033C218.643 48.0916 214.365 46.8358 209.342 46.8358C204.397 46.8358 200.002 48.0132 196.195 50.3679C192.388 52.7225 189.406 55.9799 187.286 60.1006C185.167 64.2606 184.107 69.1269 184.107 74.6605C184.107 80.2332 185.206 85.0996 187.365 89.2988C189.523 93.498 192.545 96.7161 196.352 99.0315C200.159 101.347 204.554 102.485 209.499 102.485C213.659 102.485 217.466 101.622 220.919 99.9342C224.373 98.2074 227.12 95.8135 229.2 92.7131C231.28 89.6128 232.3 85.963 232.3 81.803V76.6619L237.638 81.4891H209.303V71.4424H244.074V78.4672C244.074 83.9615 243.132 88.8671 241.248 93.1841C239.364 97.501 236.813 101.19 233.595 104.173C230.377 107.194 226.688 109.471 222.528 111.001C218.525 112.493 214.169 113.277 209.617 113.277Z" fill="#1B1B1B"/>
<path d="M255.142 112.062V36.0049H266.483V112.062H255.142Z" fill="#1B1B1B"/>
<path d="M306.003 113.278C300.784 113.278 295.996 112.022 291.679 109.55C287.362 107.077 283.908 103.702 281.397 99.3854C278.846 95.1077 277.59 90.2414 277.59 84.8256C277.59 79.3313 278.846 74.4649 281.397 70.1872C283.948 65.9487 287.362 62.5737 291.64 60.1405C295.917 57.7073 300.705 56.4907 306.003 56.4907C311.38 56.4907 316.168 57.7073 320.406 60.1405C324.645 62.5737 328.059 65.9487 330.57 70.1872C333.082 74.4256 334.338 79.3313 334.338 84.8256C334.338 90.3198 333.082 95.2255 330.531 99.5032C327.98 103.781 324.566 107.156 320.288 109.589C315.971 112.062 311.223 113.278 306.003 113.278ZM306.003 102.721C309.221 102.721 312.047 101.936 314.559 100.406C317.031 98.8752 318.993 96.756 320.445 94.0089C321.897 91.301 322.604 88.2399 322.604 84.8256C322.604 81.4112 321.897 78.3501 320.445 75.6815C318.993 73.0128 317.031 70.8936 314.559 69.3631C312.086 67.8325 309.221 67.0476 306.003 67.0476C302.864 67.0476 300.038 67.8325 297.526 69.3631C295.015 70.8936 293.052 73.0128 291.6 75.6815C290.148 78.3501 289.442 81.4112 289.442 84.8256C289.442 88.2399 290.148 91.301 291.6 94.0089C293.052 96.7168 295.015 98.836 297.526 100.406C299.999 101.936 302.864 102.721 306.003 102.721Z" fill="#1B1B1B"/>
<path d="M345.401 112.062V57.7079H356.272V68.6572L355.252 67.0482C356.468 63.5161 358.391 60.926 361.06 59.3562C363.729 57.7864 366.947 57.0015 370.714 57.0015H374.011V67.3621H369.302C365.534 67.3621 362.512 68.5002 360.197 70.8157C357.881 73.1311 356.743 76.4277 356.743 80.7054V112.062H345.401V112.062Z" fill="#1B1B1B"/>
<path d="M381.747 50.2517V37.1831H393.128V50.2517H381.747ZM381.747 112.062V57.7082H393.128V112.062H381.747Z" fill="#1B1B1B"/>
<path d="M432.609 113.278C427.389 113.278 422.601 112.022 418.284 109.55C413.967 107.077 410.514 103.702 408.002 99.3854C405.451 95.1077 404.195 90.2414 404.195 84.8256C404.195 79.3313 405.451 74.4649 408.002 70.1872C410.553 65.9487 413.967 62.5737 418.245 60.1405C422.523 57.7073 427.311 56.4907 432.609 56.4907C437.985 56.4907 442.773 57.7073 447.012 60.1405C451.25 62.5737 454.664 65.9487 457.176 70.1872C459.688 74.4256 460.943 79.3313 460.943 84.8256C460.943 90.3198 459.688 95.2255 457.137 99.5032C454.586 103.781 451.171 107.156 446.894 109.589C442.577 112.062 437.828 113.278 432.609 113.278ZM432.609 102.721C435.827 102.721 438.652 101.936 441.164 100.406C443.636 98.8752 445.599 96.756 447.051 94.0089C448.503 91.301 449.209 88.2399 449.209 84.8256C449.209 81.4112 448.503 78.3501 447.051 75.6815C445.599 73.0128 443.636 70.8936 441.164 69.3631C438.692 67.8325 435.827 67.0476 432.609 67.0476C429.469 67.0476 426.643 67.8325 424.132 69.3631C421.62 70.8936 419.658 73.0128 418.206 75.6815C416.754 78.3501 416.047 81.4112 416.047 84.8256C416.047 88.2399 416.754 91.301 418.206 94.0089C419.658 96.7168 421.62 98.836 424.132 100.406C426.643 101.936 429.469 102.721 432.609 102.721Z" fill="#1B1B1B"/>
<path d="M474.105 13.6841C472 30.9127 466.245 36.4098 448.421 38.2198C466.245 40.365 472 45.9291 474.105 63.1578C476.21 45.9291 482.175 40.4321 500 38.4209C482.175 36.4098 476.14 30.8457 474.105 13.6841Z" fill="#AA8453"/>
<path d="M74.6212 149.242C115.833 149.242 149.242 115.833 149.242 74.6212C149.242 33.409 115.833 0 74.6212 0C33.409 0 0 33.409 0 74.6212C0 115.833 33.409 149.242 74.6212 149.242Z" fill="#AA8453"/>
<path d="M51.3821 46.4093C59.1757 38.8625 69.9669 34.8776 79.9116 34.8776C106.784 34.8776 119.373 58.9637 119.373 58.9637L120.467 58.7169L114.33 35.7239C114.33 35.7239 104.95 29.3057 79.9469 29.3057C66.3698 29.3057 51.9816 33.608 40.873 41.578C43.9411 42.6006 47.2561 44.1171 50.712 46.0566C50.8884 46.1624 51.1705 46.2682 51.3821 46.4093Z" fill="white"/>
<path d="M129.282 72.0126C124.451 77.7961 118.667 80.3705 112.848 81.0758C112.425 81.1463 111.967 81.1816 111.544 81.2169C103.397 81.8516 94.2283 78.8541 85.7294 74.3049C83.8956 73.0353 81.7092 71.5189 80.1928 69.3325C80.1928 69.3325 72.8929 61.292 76.0667 54.1684C71.4117 61.4683 76.5604 68.2393 77.0189 68.8388C71.7291 65.1359 67.7794 61.4683 63.2654 58.1887C60.6558 56.2844 55.3308 52.2641 49.1241 48.8787C45.4918 46.8333 41.5068 45.0348 37.6982 43.9768C32.3379 42.4957 27.2244 42.4957 23.3452 45.4579C26.6954 44.2237 30.7862 44.6116 35.3354 46.0574C39.0735 47.2212 43.0937 49.1255 47.114 51.4883C52.0158 54.239 56.953 57.6244 61.5375 60.9746C77.2657 72.4711 90.8076 84.7081 111.297 83.0859C111.826 83.0507 112.355 82.9801 112.884 82.9096C115.176 82.6275 117.468 81.9927 119.725 81.0758C117.398 82.5217 115.105 83.6502 112.884 84.4965C93.4172 92.1491 78.5 78.8894 60.5853 65.6649C54.2023 60.9394 48.983 57.695 44.6101 55.5085C41.0836 53.7805 38.1566 52.7226 35.4765 52.1231C33.819 51.7351 32.0205 51.5236 30.2219 51.5236C19.5718 51.453 8.49857 57.8713 13.1183 70.7078C12.0251 64.3601 16.1864 59.7051 16.1864 59.7051C18.796 56.6017 23.1336 54.8385 27.5065 55.2969C29.4108 55.4733 31.3152 56.0728 33.0432 57.166C36.0407 59.035 38.9324 60.9746 41.6831 62.9142C51.91 70.0025 60.7969 77.3024 69.3311 82.5569C77.9358 87.9173 87.6337 91.1264 97.1553 91.2675C102.586 91.338 107.876 90.3858 112.919 88.2346V110.734C86.0115 125.298 40.2725 113.52 40.2725 73.6348C40.2725 71.0605 40.5194 68.6272 40.9426 66.2997C40.5899 66.0528 40.2373 65.806 39.8493 65.5591C36.9223 63.5137 34.0659 61.6094 31.3504 59.9167C29.9751 59.1761 28.5645 58.6824 27.1539 58.5766C26.6249 58.5061 26.1312 58.5061 25.6022 58.5413C22.5341 64.3248 20.7709 70.8489 20.7709 78.1135C20.7709 127.908 88.0569 142.473 124.451 108.759L130.234 103.117V76.7735V70.6373C129.881 71.131 129.599 71.5542 129.282 72.0126ZM67.3915 78.1135C59.3157 72.7532 50.0763 65.4533 42.459 60.2693C38.474 57.5539 34.9827 55.4027 32.2673 54.3448C32.9021 54.3448 37.0281 54.909 43.3053 58.0829C46.0208 59.4582 49.1241 61.292 52.5096 63.8311C63.865 72.33 70.8122 77.9725 78.3237 82.0632C85.7999 86.1187 87.0342 86.6124 90.8781 87.8467C84.4246 86.9298 79.6638 86.2951 67.3915 78.1135Z" fill="white"/>
</svg>
